<svg xmlns="http://www.w3.org/2000/svg" width="40" height="40" viewBox="0 0 40 40">
    <g fill="none" fill-rule="evenodd">
        <g>
            <g>
                <g>
                    <g transform="translate(-413 -979) translate(80 602) translate(0 128) translate(333 249)">
                        <circle cx="20" cy="20" r="20" fill="#262C6A"/>
                        <g fill="#FFF" fill-rule="nonzero">
                            <path d="M15.485 11.52c-.043-.035-3.218-2.323-4.09-2.159-.416.074-.654.357-1.131.925-.077.092-.261.312-.405.468-.301-.098-.596-.218-.88-.358-1.47-.715-2.656-1.902-3.372-3.371-.14-.285-.26-.58-.358-.881.157-.144.377-.329.47-.407.566-.475.85-.713.924-1.13.15-.864-2.136-4.06-2.16-4.09-.21-.3-.544-.49-.91-.517C2.646 0 0 3.433 0 4.011c0 .034.049 3.45 4.26 7.734C8.54 15.95 11.955 16 11.99 16 12.567 16 16 13.354 16 12.427c-.027-.364-.216-.697-.515-.907z" transform="translate(12 12)"/>
                        </g>
                    </g>
                </g>
            </g>
        </g>
    </g>
</svg>
