<svg xmlns="http://www.w3.org/2000/svg" width="70" height="63" viewBox="0 0 70 63">
    <g fill="none" fill-rule="evenodd">
        <g>
            <g>
                <g>
                    <path fill="#262C6A" d="M0 58L29 58 35 63 41 58 70 58 70 0 0 0z" transform="translate(-906 -727) translate(80 602) translate(826 125)"/>
                    <path fill="#FFF" fill-rule="nonzero" d="M50.68 37.425c-.14-.085-3.491-2.098-7.68-2.098-.431 0-.86.017-1.283.043.983-.534 1.973-1.153 2.89-1.869 4.424-3.456 6.283-9.071 6.36-9.309.071-.22.024-.46-.125-.637-.15-.175-.376-.256-.607-.228-.192.028-4.728.742-8.88 4.518-1.122 1.02-2.138 2.154-3.031 3.268.396-1.545.676-3.278.676-5.125 0-6.389-3.302-11.493-3.443-11.707-.246-.375-.868-.375-1.114 0C34.302 14.495 31 19.6 31 25.988c0 1.847.28 3.58.676 5.125-.893-1.114-1.909-2.247-3.03-3.268-4.153-3.776-8.69-4.49-8.881-4.518-.227-.028-.457.053-.607.228-.15.177-.196.418-.125.637.076.238 1.936 5.853 6.36 9.31.916.715 1.907 1.334 2.89 1.868-.424-.026-.852-.043-1.283-.043-4.189 0-7.54 2.013-7.68 2.098-.2.122-.32.339-.32.572 0 .234.124.45.324.57.142.085 3.539 2.096 7.676 2.096.923 0 1.832-.132 2.696-.334-1.414 1.667-1.366 3.603-1.362 3.699.01.205.112.395.28.514.113.082.249.124.386.124.064 0 .128-.01.19-.027.1-.03 2.486-.758 4.314-2.872.328-.379.592-.754.83-1.123v4.689c0 .369.298.667.666.667.369 0 .667-.298.667-.667v-4.69c.237.37.501.745.83 1.124 1.827 2.114 4.213 2.842 4.313 2.872.062.018.126.027.19.027.137 0 .273-.042.387-.124.167-.12.27-.31.28-.514.003-.097.051-2.037-1.368-3.705.868.205 1.78.34 2.701.34 4.189 0 7.54-2.012 7.68-2.098.199-.121.32-.337.32-.57 0-.232-.121-.449-.32-.57z" transform="translate(-906 -727) translate(80 602) translate(826 125)"/>
                </g>
            </g>
        </g>
    </g>
</svg>
