<svg xmlns="http://www.w3.org/2000/svg" width="26" height="24" viewBox="0 0 26 24">
    <g fill="none" fill-rule="evenodd" opacity=".8">
        <g fill="#262C6A" fill-rule="nonzero">
            <g>
                <g>
                    <g>
                        <path d="M11.67 0C5.239 0 0 4.834 0 10.769c0 5.934 5.239 10.777 11.67 10.777 2.747 0 5.273-.888 7.27-2.363l4.86 4.483c.511.452 1.319.444 1.819-.017.5-.46.51-1.206.02-1.677l-4.86-4.486c1.6-1.845 2.563-4.18 2.563-6.717C23.342 4.834 18.101 0 11.67 0zm0 2.394c5.03 0 9.076 3.734 9.076 8.375 0 4.64-4.047 8.384-9.076 8.384-5.03 0-9.076-3.744-9.076-8.384 0-4.641 4.047-8.375 9.076-8.375z" transform="translate(-610 -654) translate(80 602) translate(40 32) translate(490 20)"/>
                    </g>
                </g>
            </g>
        </g>
    </g>
</svg>
