<svg width="24" height="24" viewBox="0 0 24 24" fill="none" xmlns="http://www.w3.org/2000/svg">
<g opacity="0.5" clip-path="url(#clip0)">
<path d="M24 12C24 5.38298 18.617 -2.35298e-07 12 -5.24537e-07C5.38298 -8.13776e-07 -2.35298e-07 5.38298 -5.24537e-07 12C-8.13776e-07 18.617 5.38298 24 12 24C18.617 24 24 18.617 24 12ZM11.293 15.707L6.29302 10.707C6.09802 10.512 6 10.256 6 9.99998C6 9.744 6.09802 9.48797 6.29302 9.29297C6.684 8.90198 7.31601 8.90198 7.707 9.29297L12 13.586L16.293 9.29302C16.684 8.90203 17.316 8.90203 17.707 9.29302C18.098 9.684 18.098 10.316 17.707 10.707L12.707 15.707C12.316 16.098 11.684 16.098 11.293 15.707Z" fill="#303030"/>
</g>
<defs>
<clipPath id="clip0">
<rect width="24" height="24" fill="white"/>
</clipPath>
</defs>
</svg>
