<svg version="1.2" baseProfile="tiny-ps" xmlns="http://www.w3.org/2000/svg" viewBox="0 0 24 24" width="24" height="24">
	<title>Up-svg</title>
	<defs>
		<clipPath clipPathUnits="userSpaceOnUse" id="cp1">
			<path d="M24 24L0 24L0 0L24 0L24 24Z" />
		</clipPath>
	</defs>
	<style>
		tspan { white-space:pre }
		.shp0 { fill: #632467 } 
	</style>
	<g id="Clip-Path" clip-path="url(#cp1)">
		<g id="Layer">
			<path id="Layer" fill-rule="evenodd" class="shp0" d="M12 24C5.38 24 0 18.62 0 12C0 5.38 5.38 0 12 0C18.62 0 24 5.38 24 12C24 18.62 18.62 24 12 24ZM12.71 15.71L17.71 10.71C18.1 10.32 18.1 9.68 17.71 9.29C17.32 8.9 16.68 8.9 16.29 9.29L12 13.59L7.71 9.29C7.32 8.9 6.68 8.9 6.29 9.29C6.1 9.49 6 9.74 6 10C6 10.26 6.1 10.51 6.29 10.71L11.29 15.71C11.68 16.1 12.32 16.1 12.71 15.71Z" />
		</g>
	</g>
</svg>